<mxfile host="app.diagrams.net" modified="2021-03-28T10:50:26.594Z" agent="5.0 (Windows NT 10.0; Win64; x64) AppleWebKit/537.36 (KHTML, like Gecko) Chrome/89.0.4389.82 Safari/537.36 Edg/89.0.774.50" etag="5eglejSUnLBnFq7KKju0" compressed="false" version="14.5.3" type="github">
  <diagram id="dJ3BSgD34plooyV6jrqa" name="Page-1">
    <mxGraphModel dx="1422" dy="762" grid="1" gridSize="10" guides="1" tooltips="1" connect="1" arrows="1" fold="1" page="1" pageScale="1" pageWidth="827" pageHeight="1169" math="0" shadow="0">
      <root>
        <mxCell id="0" />
        <mxCell id="1" parent="0" />
        <mxCell id="jx_5jHLMS5MpVJFKeeTs-104" style="edgeStyle=orthogonalEdgeStyle;rounded=0;orthogonalLoop=1;jettySize=auto;html=1;entryX=0.483;entryY=-0.005;entryDx=0;entryDy=0;entryPerimeter=0;fontFamily=esliye;fontSource=https%3A%2F%2Fgitee.com%2FUyCode%2Fugfonts%2Fblob%2Fmaster%2FALKATIP%2520Esliye.ttf;" edge="1" parent="1" source="jx_5jHLMS5MpVJFKeeTs-100" target="jx_5jHLMS5MpVJFKeeTs-103">
          <mxGeometry relative="1" as="geometry" />
        </mxCell>
        <mxCell id="jx_5jHLMS5MpVJFKeeTs-100" value="" style="verticalLabelPosition=bottom;verticalAlign=top;html=1;shadow=0;dashed=0;strokeWidth=1;shape=mxgraph.ios.iPhone;bgStyle=bgGreen;fillColor=#aaaaaa;fontFamily=esliye;fontSource=https%3A%2F%2Fgitee.com%2FUyCode%2Fugfonts%2Fblob%2Fmaster%2FALKATIP%2520Esliye.ttf;" vertex="1" parent="1">
          <mxGeometry x="30" y="120" width="200" height="400" as="geometry" />
        </mxCell>
        <mxCell id="jx_5jHLMS5MpVJFKeeTs-101" value="" style="verticalLabelPosition=bottom;verticalAlign=top;html=1;shadow=0;dashed=0;strokeWidth=1;shape=mxgraph.ios.iAddIcon;fillColor=#7AdF78;fillColor2=#1A9917;strokeColor=#ffffff;fontFamily=esliye;fontSource=https%3A%2F%2Fgitee.com%2FUyCode%2Fugfonts%2Fblob%2Fmaster%2FALKATIP%2520Esliye.ttf;" vertex="1" parent="1">
          <mxGeometry x="310" y="290" width="80" height="80" as="geometry" />
        </mxCell>
        <mxCell id="jx_5jHLMS5MpVJFKeeTs-105" style="edgeStyle=orthogonalEdgeStyle;rounded=0;orthogonalLoop=1;jettySize=auto;html=1;entryX=0.482;entryY=0;entryDx=0;entryDy=0;entryPerimeter=0;fontFamily=esliye;fontSource=https%3A%2F%2Fgitee.com%2FUyCode%2Fugfonts%2Fblob%2Fmaster%2FALKATIP%2520Esliye.ttf;" edge="1" parent="1" source="jx_5jHLMS5MpVJFKeeTs-102" target="jx_5jHLMS5MpVJFKeeTs-103">
          <mxGeometry relative="1" as="geometry" />
        </mxCell>
        <mxCell id="jx_5jHLMS5MpVJFKeeTs-102" value="" style="verticalLabelPosition=bottom;verticalAlign=top;html=1;shadow=0;dashed=0;strokeWidth=1;shape=mxgraph.ios.iPhone;direction=north;bgStyle=bgGreen;fillColor=#aaaaaa;fontFamily=esliye;fontSource=https%3A%2F%2Fgitee.com%2FUyCode%2Fugfonts%2Fblob%2Fmaster%2FALKATIP%2520Esliye.ttf;" vertex="1" parent="1">
          <mxGeometry x="500" y="230" width="400" height="200" as="geometry" />
        </mxCell>
        <mxCell id="jx_5jHLMS5MpVJFKeeTs-103" value="" style="verticalLabelPosition=bottom;verticalAlign=top;html=1;shadow=0;dashed=0;strokeWidth=1;shape=mxgraph.ios.iPad;bgStyle=bgGreen;fillColor=#aaaaaa;fontFamily=esliye;fontSource=https%3A%2F%2Fgitee.com%2FUyCode%2Fugfonts%2Fblob%2Fmaster%2FALKATIP%2520Esliye.ttf;" vertex="1" parent="1">
          <mxGeometry x="180" y="730" width="600" height="440" as="geometry" />
        </mxCell>
      </root>
    </mxGraphModel>
  </diagram>
</mxfile>
